<svg xmlns="http://www.w3.org/2000/svg" viewBox="0 0 200 260" role="img" aria-labelledby="title desc">
  <title id="title">白泽</title>
  <desc id="desc">白泽：瑞兽知世，达知溯命</desc>
  <defs>
    <linearGradient id="baize-bg" x1="0" y1="0" x2="0" y2="1">
      <stop offset="0" stop-color="#0e1410"/>
      <stop offset=".55" stop-color="#18241c"/>
      <stop offset="1" stop-color="#0a0e0c"/>
    </linearGradient>
    <radialGradient id="baize-halo" cx=".5" cy=".44" r=".6">
      <stop offset="0" stop-color="#a0d0b0" stop-opacity=".45"/>
      <stop offset=".5" stop-color="#50a070" stop-opacity=".18"/>
      <stop offset="1" stop-color="#50a070" stop-opacity="0"/>
    </radialGradient>
    <linearGradient id="baize-body" x1=".2" y1="0" x2=".9" y2="1">
      <stop offset="0" stop-color="#d0e8d8"/>
      <stop offset=".55" stop-color="#88b098"/>
      <stop offset="1" stop-color="#50a070"/>
    </linearGradient>
    <linearGradient id="baize-acc" x1="0" y1="0" x2="1" y2="1">
      <stop offset="0" stop-color="#50a070"/>
      <stop offset="1" stop-color="#204830"/>
    </linearGradient>
    <linearGradient id="baize-gold" x1="0" y1="0" x2="1" y2="1">
      <stop offset="0" stop-color="#ffd98a"/>
      <stop offset="1" stop-color="#c9762c"/>
    </linearGradient>
  </defs>
  <rect width="200" height="260" fill="url(#baize-bg)"/>
  <circle cx="100" cy="112" r="86" fill="url(#baize-halo)"/>
  <g>
    <path d="M70 130c8-35 22-55 30-55s22 20 30 55c-10 18-20 28-30 28s-20-10-30-28Z" fill="url(#baize-body)" stroke="#203028" stroke-width="1.6"/>
    <path d="M78 95l-12-22M122 95l12-22" stroke="url(#baize-gold)" stroke-width="2" stroke-linecap="round"/>
    <circle cx="88" cy="120" r="4" fill="#102018"/><circle cx="112" cy="120" r="4" fill="#102018"/>
    <path d="M92 138c5 5 11 5 16 0" stroke="#203028" stroke-width="1.3" fill="none"/>
    <rect x="72" y="168" width="56" height="18" rx="2" fill="url(#baize-acc)" opacity=".55"/>
  </g>
<g fill="url(#baize-acc)">
    <circle cx="40" cy="80" r="2" opacity=".6"/>
    <circle cx="160" cy="86" r="1.8" opacity=".55"/>
    <circle cx="34" cy="150" r="1.6" opacity=".5"/>
    <circle cx="168" cy="154" r="1.6" opacity=".5"/>
    <circle cx="100" cy="40" r="1.8" opacity=".55"/>
    <circle cx="70" cy="200" r="1.5" opacity=".5"/>
    <circle cx="130" cy="200" r="1.5" opacity=".5"/>
  </g>
  <ellipse cx="100" cy="222" rx="52" ry="9" fill="#000" opacity=".4"/>
  <rect width="200" height="260" fill="none" stroke="#50a070" stroke-opacity=".35" stroke-width="1.5" rx="10"/>
</svg>
