<svg xmlns="http://www.w3.org/2000/svg" viewBox="0 0 200 260" role="img" aria-labelledby="title desc">
  <title id="title">鲤鱼精</title>
  <desc id="desc">鲤鱼精：泡泡加护，赤鲤跃波</desc>
  <defs>
    <linearGradient id="liyujing-bg" x1="0" y1="0" x2="0" y2="1">
      <stop offset="0" stop-color="#0a1418"/>
      <stop offset=".55" stop-color="#122430"/>
      <stop offset="1" stop-color="#080e12"/>
    </linearGradient>
    <radialGradient id="liyujing-halo" cx=".5" cy=".44" r=".6">
      <stop offset="0" stop-color="#80d0e0" stop-opacity=".45"/>
      <stop offset=".5" stop-color="#30a0b0" stop-opacity=".18"/>
      <stop offset="1" stop-color="#30a0b0" stop-opacity="0"/>
    </radialGradient>
    <linearGradient id="liyujing-body" x1=".2" y1="0" x2=".9" y2="1">
      <stop offset="0" stop-color="#c0e8f0"/>
      <stop offset=".55" stop-color="#70b0c0"/>
      <stop offset="1" stop-color="#30a0b0"/>
    </linearGradient>
    <linearGradient id="liyujing-acc" x1="0" y1="0" x2="1" y2="1">
      <stop offset="0" stop-color="#30a0b0"/>
      <stop offset="1" stop-color="#184858"/>
    </linearGradient>
    <linearGradient id="liyujing-gold" x1="0" y1="0" x2="1" y2="1">
      <stop offset="0" stop-color="#ffd98a"/>
      <stop offset="1" stop-color="#c9762c"/>
    </linearGradient>
  </defs>
  <rect width="200" height="260" fill="url(#liyujing-bg)"/>
  <circle cx="100" cy="112" r="86" fill="url(#liyujing-halo)"/>
  <g>
    <ellipse cx="100" cy="125" rx="36" ry="28" fill="url(#liyujing-body)" stroke="#183040" stroke-width="1.6"/>
    <path d="M64 125c-14-12-22-12-28-4 10 4 18 10 28 12M136 125c14-12 22-12 28-4-10 4-18 10-28 12" fill="url(#liyujing-acc)" opacity=".8"/>
    <circle cx="115" cy="118" r="3.5" fill="#102030"/>
    <path d="M95 135c6 5 14 5 20 0" stroke="#183040" stroke-width="1.3" fill="none"/>
    <circle cx="70" cy="75" r="8" fill="none" stroke="url(#liyujing-gold)" stroke-width="1.3" opacity=".7"/>
    <circle cx="88" cy="58" r="5" fill="none" stroke="url(#liyujing-gold)" stroke-width="1.1" opacity=".6"/>
    <circle cx="125" cy="70" r="4" fill="none" stroke="url(#liyujing-gold)" stroke-width="1.1" opacity=".55"/>
  </g>
<g fill="url(#liyujing-acc)">
    <circle cx="40" cy="80" r="2" opacity=".6"/>
    <circle cx="160" cy="86" r="1.8" opacity=".55"/>
    <circle cx="34" cy="150" r="1.6" opacity=".5"/>
    <circle cx="168" cy="154" r="1.6" opacity=".5"/>
    <circle cx="100" cy="40" r="1.8" opacity=".55"/>
    <circle cx="70" cy="200" r="1.5" opacity=".5"/>
    <circle cx="130" cy="200" r="1.5" opacity=".5"/>
  </g>
  <ellipse cx="100" cy="222" rx="52" ry="9" fill="#000" opacity=".4"/>
  <rect width="200" height="260" fill="none" stroke="#30a0b0" stroke-opacity=".35" stroke-width="1.5" rx="10"/>
</svg>
