<svg xmlns="http://www.w3.org/2000/svg" viewBox="0 0 200 260" role="img" aria-labelledby="title desc">
  <title id="title">大天狗 · 觉醒相</title>
  <desc id="desc">羽翼与团扇：墨羽张开，金骨团扇斜倚，天狗昂首。觉醒相：鎏金环阵与绯焰符印</desc>
  <defs>
    <linearGradient id="datiangou-bg" x1="0" y1="0" x2="0" y2="1">
      <stop offset="0" stop-color="#140c14"/>
      <stop offset=".55" stop-color="#20101c"/>
      <stop offset="1" stop-color="#0e0810"/>
    </linearGradient>
    <radialGradient id="datiangou-halo" cx=".5" cy=".44" r=".6">
      <stop offset="0" stop-color="#c080a0" stop-opacity=".45"/>
      <stop offset=".5" stop-color="#a03050" stop-opacity=".18"/>
      <stop offset="1" stop-color="#a03050" stop-opacity="0"/>
    </radialGradient>
    <linearGradient id="datiangou-body" x1=".2" y1="0" x2=".9" y2="1">
      <stop offset="0" stop-color="#e8c8d8"/>
      <stop offset=".55" stop-color="#a06080"/>
      <stop offset="1" stop-color="#a03050"/>
    </linearGradient>
    <linearGradient id="datiangou-acc" x1="0" y1="0" x2="1" y2="1">
      <stop offset="0" stop-color="#a03050"/>
      <stop offset="1" stop-color="#501828"/>
    </linearGradient>
    <linearGradient id="datiangou-gold" x1="0" y1="0" x2="1" y2="1">
      <stop offset="0" stop-color="#ffd98a"/>
      <stop offset="1" stop-color="#c9762c"/>
    </linearGradient>
  </defs>
  <rect width="200" height="260" fill="url(#datiangou-bg)"/>
  <circle cx="100" cy="112" r="86" fill="url(#datiangou-halo)"/>
  <g>
    <path d="M78 100c-24-22-48-24-62-12 20 4 36 16 48 34-18-8-36-6-50 6 24 2 46 10 58 24Z" fill="url(#datiangou-body)" opacity=".85"/>
    <path d="M122 100c24-22 48-24 62-12-20 4-36 16-48 34 18-8 36-6 50 6-24 2-46 10-58 24Z" fill="url(#datiangou-body)" opacity=".85"/>
  </g>
  <ellipse cx="100" cy="108" rx="30" ry="34" fill="url(#datiangou-acc)" opacity=".9" stroke="#2a1016" stroke-width="2"/>
  <path d="M78 78 72 48l22 16h12l22-16-6 30" fill="none" stroke="url(#datiangou-gold)" stroke-width="2.5" stroke-linejoin="round"/>
  <ellipse cx="88" cy="104" rx="6" ry="4" fill="#1a0a08"/>
  <ellipse cx="112" cy="104" rx="6" ry="4" fill="#1a0a08"/>
  <circle cx="89" cy="103" r="1.8" fill="#ffd98a"/><circle cx="113" cy="103" r="1.8" fill="#ffd98a"/>
  <path d="M148 130l36 8-28 24Z" fill="url(#datiangou-body)" stroke="url(#datiangou-gold)" stroke-width="1.2"/>
  <path d="M152 138l22 5M150 148l16 2" stroke="#5c2418" stroke-width="1" opacity=".6"/>
  <path d="M90 132c6 6 14 6 20 0" stroke="#3a0f0a" stroke-width="1.8" fill="none" stroke-linecap="round"/>
<g fill="url(#datiangou-acc)">
    <circle cx="40" cy="70" r="2" opacity=".65"/>
    <circle cx="160" cy="66" r="1.8" opacity=".6"/>
    <circle cx="34" cy="140" r="2.2" opacity=".7"/>
    <circle cx="168" cy="150" r="1.6" opacity=".5"/>
    <circle cx="100" cy="32" r="1.8" opacity=".55"/>
    <circle cx="70" cy="190" r="1.5" opacity=".5"/>
    <circle cx="134" cy="196" r="1.8" opacity=".6"/>
  </g>
  <ellipse cx="100" cy="222" rx="52" ry="9" fill="#000" opacity=".4"/>
  <g aria-hidden="true">
    <circle cx="100" cy="112" r="99" fill="rgba(255, 233, 178, 0.35)" opacity=".55"/>
    <g fill="none" stroke="url(#datiangou-gold)">
      <circle cx="100" cy="112" r="90" stroke-width="1.6" stroke-dasharray="11 7" opacity=".78"/>
      <circle cx="100" cy="112" r="83.5" stroke-width=".8" opacity=".4"/>
    </g>
    <g>
      <circle cx="24.7" cy="68.5" r="6" fill="url(#datiangou-gold)" stroke="#59371b" stroke-width="1"/>
      <circle cx="24.7" cy="68.5" r="1.8" fill="#ff8a3d"/>
      <circle cx="175.3" cy="68.5" r="6" fill="url(#datiangou-gold)" stroke="#59371b" stroke-width="1"/>
      <circle cx="175.3" cy="68.5" r="1.8" fill="#ff8a3d"/>
      <circle cx="100" cy="199" r="6" fill="url(#datiangou-gold)" stroke="#59371b" stroke-width="1"/>
      <circle cx="100" cy="199" r="1.8" fill="#ff8a3d"/>
    </g>
    <path d="M100 16c5 7 5.5 12 0 19-5.5-7-5-12 0-19z" fill="url(#datiangou-gold)"/>
    <g stroke="url(#datiangou-gold)" stroke-width="1" opacity=".7">
      <path d="M84 26h-7M123 26h7M88 14l-5-4M112 14l5-4M88 38l-5 4M112 38l5 4"/>
    </g>
    <g fill="#ffd98a" opacity=".8">
      <circle cx="38" cy="88" r="2.4"/><circle cx="162" cy="94" r="2"/>
      <circle cx="52" cy="170" r="1.8"/><circle cx="150" cy="176" r="2.2"/>
    </g>
    <g fill="#ffe6a8" opacity=".7">
      <circle cx="66" cy="48" r="1.2"/><circle cx="134" cy="48" r="1.2"/>
      <circle cx="100" cy="208" r="1.4"/>
    </g>
  </g>
  <rect width="200" height="260" fill="none" stroke="#a03050" stroke-opacity=".35" stroke-width="1.5" rx="10"/>
</svg>
