<svg xmlns="http://www.w3.org/2000/svg" viewBox="0 0 200 260" role="img" aria-labelledby="title desc">
  <title id="title">猫川 · 觉醒相</title>
  <desc id="desc">猫川：卷轴代价，长河垄断。觉醒相：鎏金环阵与绯焰符印</desc>
  <defs>
    <linearGradient id="maochuan-bg" x1="0" y1="0" x2="0" y2="1">
      <stop offset="0" stop-color="#120e0a"/>
      <stop offset=".55" stop-color="#1c1812"/>
      <stop offset="1" stop-color="#0c0a06"/>
    </linearGradient>
    <radialGradient id="maochuan-halo" cx=".5" cy=".44" r=".6">
      <stop offset="0" stop-color="#c0a070" stop-opacity=".45"/>
      <stop offset=".5" stop-color="#906838" stop-opacity=".18"/>
      <stop offset="1" stop-color="#906838" stop-opacity="0"/>
    </radialGradient>
    <linearGradient id="maochuan-body" x1=".2" y1="0" x2=".9" y2="1">
      <stop offset="0" stop-color="#e0d0a8"/>
      <stop offset=".55" stop-color="#a89060"/>
      <stop offset="1" stop-color="#906838"/>
    </linearGradient>
    <linearGradient id="maochuan-acc" x1="0" y1="0" x2="1" y2="1">
      <stop offset="0" stop-color="#906838"/>
      <stop offset="1" stop-color="#483018"/>
    </linearGradient>
    <linearGradient id="maochuan-gold" x1="0" y1="0" x2="1" y2="1">
      <stop offset="0" stop-color="#ffd98a"/>
      <stop offset="1" stop-color="#c9762c"/>
    </linearGradient>
  </defs>
  <rect width="200" height="260" fill="url(#maochuan-bg)"/>
  <circle cx="100" cy="112" r="86" fill="url(#maochuan-halo)"/>
  <g>
    <rect x="65" y="60" width="70" height="90" rx="4" fill="url(#maochuan-body)" opacity=".5" stroke="#2a2040" stroke-width="1.3"/>
    <path d="M75 80h50M75 100h40M75 120h45" stroke="url(#maochuan-gold)" stroke-width="1.3"/>
    <path d="M135 100c15 5 20 25 5 35" fill="none" stroke="url(#maochuan-acc)" stroke-width="1.8"/>
  </g>
<g fill="url(#maochuan-acc)">
    <circle cx="40" cy="80" r="2" opacity=".6"/>
    <circle cx="160" cy="86" r="1.8" opacity=".55"/>
    <circle cx="34" cy="150" r="1.6" opacity=".5"/>
    <circle cx="168" cy="154" r="1.6" opacity=".5"/>
    <circle cx="100" cy="40" r="1.8" opacity=".55"/>
    <circle cx="70" cy="200" r="1.5" opacity=".5"/>
    <circle cx="130" cy="200" r="1.5" opacity=".5"/>
  </g>
  <ellipse cx="100" cy="222" rx="52" ry="9" fill="#000" opacity=".4"/>
  <g aria-hidden="true">
    <circle cx="100" cy="112" r="99" fill="rgba(255, 233, 178, 0.35)" opacity=".55"/>
    <g fill="none" stroke="url(#maochuan-gold)">
      <circle cx="100" cy="112" r="90" stroke-width="1.6" stroke-dasharray="11 7" opacity=".78"/>
      <circle cx="100" cy="112" r="83.5" stroke-width=".8" opacity=".4"/>
    </g>
    <g>
      <circle cx="24.7" cy="68.5" r="6" fill="url(#maochuan-gold)" stroke="#59371b" stroke-width="1"/>
      <circle cx="24.7" cy="68.5" r="1.8" fill="#ff8a3d"/>
      <circle cx="175.3" cy="68.5" r="6" fill="url(#maochuan-gold)" stroke="#59371b" stroke-width="1"/>
      <circle cx="175.3" cy="68.5" r="1.8" fill="#ff8a3d"/>
      <circle cx="100" cy="199" r="6" fill="url(#maochuan-gold)" stroke="#59371b" stroke-width="1"/>
      <circle cx="100" cy="199" r="1.8" fill="#ff8a3d"/>
    </g>
    <path d="M100 16c5 7 5.5 12 0 19-5.5-7-5-12 0-19z" fill="url(#maochuan-gold)"/>
  </g>
  <rect width="200" height="260" fill="none" stroke="#906838" stroke-opacity=".35" stroke-width="1.5" rx="10"/>
</svg>
