<svg xmlns="http://www.w3.org/2000/svg" viewBox="0 0 200 260" role="img" aria-labelledby="title desc">
  <title id="title">鸩</title>
  <desc id="desc">毒羽层叠：鸩鸟羽片成阵，紫粉毒光</desc>
  <defs>
    <linearGradient id="zhen-bg" x1="0" y1="0" x2="0" y2="1">
      <stop offset="0" stop-color="#120c18"/>
      <stop offset=".55" stop-color="#1c1424"/>
      <stop offset="1" stop-color="#0c0810"/>
    </linearGradient>
    <radialGradient id="zhen-halo" cx=".5" cy=".44" r=".6">
      <stop offset="0" stop-color="#c080d8" stop-opacity=".45"/>
      <stop offset=".5" stop-color="#a040a0" stop-opacity=".18"/>
      <stop offset="1" stop-color="#a040a0" stop-opacity="0"/>
    </radialGradient>
    <linearGradient id="zhen-body" x1=".2" y1="0" x2=".9" y2="1">
      <stop offset="0" stop-color="#e0c0f0"/>
      <stop offset=".55" stop-color="#9070b0"/>
      <stop offset="1" stop-color="#a040a0"/>
    </linearGradient>
    <linearGradient id="zhen-acc" x1="0" y1="0" x2="1" y2="1">
      <stop offset="0" stop-color="#a040a0"/>
      <stop offset="1" stop-color="#501850"/>
    </linearGradient>
    <linearGradient id="zhen-gold" x1="0" y1="0" x2="1" y2="1">
      <stop offset="0" stop-color="#ffd98a"/>
      <stop offset="1" stop-color="#c9762c"/>
    </linearGradient>
  </defs>
  <rect width="200" height="260" fill="url(#zhen-bg)"/>
  <circle cx="100" cy="112" r="86" fill="url(#zhen-halo)"/>
  <g>
    <path d="M100 70c-8 20-8 50 0 80 8-30 8-60 0-80Z" fill="url(#zhen-acc)" opacity=".85"/>
    <path d="M72 90c-4 24 0 50 14 70 2-28-2-52-14-70Z" fill="url(#zhen-acc)" opacity=".7"/>
    <path d="M128 90c4 24 0 50-14 70-2-28 2-52 14-70Z" fill="url(#zhen-acc)" opacity=".7"/>
    <path d="M52 110c0 22 8 42 22 56-4-24-10-42-22-56Z" fill="url(#zhen-body)" opacity=".65"/>
    <path d="M148 110c0 22-8 42-22 56 4-24 10-42 22-56Z" fill="url(#zhen-body)" opacity=".65"/>
  </g>
  <ellipse cx="100" cy="78" rx="22" ry="26" fill="url(#zhen-body)" opacity=".85" stroke="#2a2038" stroke-width="1.6"/>
  <path d="M92 58c2-12 6-18 8-18s6 6 8 18" fill="url(#zhen-acc)"/>
  <ellipse cx="90" cy="76" rx="5" ry="3.5" fill="#1a0820"/><ellipse cx="110" cy="76" rx="5" ry="3.5" fill="#1a0820"/>
  <circle cx="91" cy="75" r="1.5" fill="#e080c0"/><circle cx="111" cy="75" r="1.5" fill="#e080c0"/>
  <path d="M96 88h8l-4 6Z" fill="#c06040"/>
  <path d="M88 170c8 8 16 8 24 0" stroke="url(#zhen-gold)" stroke-width="1.3" fill="none" opacity=".6"/>
  <path d="M100 160v28M90 172l10 8 10-8" stroke="url(#zhen-acc)" stroke-width="1.5" fill="none"/>
<g fill="url(#zhen-body)">
    <circle cx="38" cy="70" r="2.2" opacity=".7"/>
    <circle cx="164" cy="65" r="2" opacity=".65"/>
    <circle cx="30" cy="130" r="2.4" opacity=".75"/>
    <circle cx="172" cy="135" r="1.8" opacity=".55"/>
    <circle cx="100" cy="32" r="1.6" opacity=".5"/>
    <circle cx="54" cy="186" r="1.6" opacity=".5"/>
    <circle cx="148" cy="190" r="2" opacity=".6"/>
    <circle cx="70" cy="50" r="1.3" opacity=".5"/>
  </g>
  <ellipse cx="100" cy="222" rx="52" ry="9" fill="#000" opacity=".4"/>
  <rect width="200" height="260" fill="none" stroke="#a040a0" stroke-opacity=".35" stroke-width="1.5" rx="10"/>
</svg>
