<svg xmlns="http://www.w3.org/2000/svg" viewBox="0 0 200 260" role="img" aria-labelledby="title desc">
  <title id="title">阎魔 · 觉醒相</title>
  <desc id="desc">阎魔：业镜与幽魂焰，冥府威仪。觉醒相：鎏金环阵与绯焰符印</desc>
  <defs>
    <linearGradient id="yanmo-bg" x1="0" y1="0" x2="0" y2="1">
      <stop offset="0" stop-color="#140818"/>
      <stop offset=".55" stop-color="#241028"/>
      <stop offset="1" stop-color="#0c0610"/>
    </linearGradient>
    <radialGradient id="yanmo-halo" cx=".5" cy=".44" r=".6">
      <stop offset="0" stop-color="#c080d0" stop-opacity=".45"/>
      <stop offset=".5" stop-color="#8030a0" stop-opacity=".18"/>
      <stop offset="1" stop-color="#8030a0" stop-opacity="0"/>
    </radialGradient>
    <linearGradient id="yanmo-body" x1=".2" y1="0" x2=".9" y2="1">
      <stop offset="0" stop-color="#e0c0e8"/>
      <stop offset=".55" stop-color="#9060a8"/>
      <stop offset="1" stop-color="#8030a0"/>
    </linearGradient>
    <linearGradient id="yanmo-acc" x1="0" y1="0" x2="1" y2="1">
      <stop offset="0" stop-color="#8030a0"/>
      <stop offset="1" stop-color="#301050"/>
    </linearGradient>
    <linearGradient id="yanmo-gold" x1="0" y1="0" x2="1" y2="1">
      <stop offset="0" stop-color="#ffd98a"/>
      <stop offset="1" stop-color="#c9762c"/>
    </linearGradient>
  </defs>
  <rect width="200" height="260" fill="url(#yanmo-bg)"/>
  <circle cx="100" cy="112" r="86" fill="url(#yanmo-halo)"/>
  <g>
    <circle cx="100" cy="115" r="36" fill="url(#yanmo-body)" opacity=".75" stroke="#4a2030" stroke-width="2"/>
    <ellipse cx="100" cy="115" rx="18" ry="24" fill="#1a1020"/>
    <polygon points="114.0,115.0 103.2,117.4 104.3,128.3 98.8,118.8 88.7,123.2 96.0,115.0 88.7,106.8 98.8,111.2 104.3,101.7 103.2,112.6" fill="url(#yanmo-gold)" opacity=".85"/>
  </g>
  <g fill="url(#yanmo-acc)" opacity=".8">
    <path d="M55 175c-8-18 2-30 10-28-2 10 4 18 10 22-6 4-14 8-20 6Z"/>
    <path d="M145 175c8-18-2-30-10-28 2 10-4 18-10 22 6 4 14 8 20 6Z"/>
  </g>
<g fill="url(#yanmo-acc)">
    <circle cx="40" cy="85" r="2" opacity=".6"/>
    <circle cx="162" cy="88" r="1.8" opacity=".55"/>
    <circle cx="36" cy="155" r="1.6" opacity=".5"/>
    <circle cx="168" cy="158" r="1.6" opacity=".5"/>
    <circle cx="100" cy="36" r="1.5" opacity=".5"/>
    <circle cx="70" cy="205" r="1.4" opacity=".5"/>
    <circle cx="130" cy="205" r="1.4" opacity=".5"/>
  </g>
  <ellipse cx="100" cy="222" rx="52" ry="9" fill="#000" opacity=".4"/>
  <g aria-hidden="true">
    <circle cx="100" cy="112" r="99" fill="rgba(255, 233, 178, 0.35)" opacity=".55"/>
    <g fill="none" stroke="url(#yanmo-gold)">
      <circle cx="100" cy="112" r="90" stroke-width="1.6" stroke-dasharray="11 7" opacity=".78"/>
      <circle cx="100" cy="112" r="83.5" stroke-width=".8" opacity=".4"/>
    </g>
    <g>
      <circle cx="24.7" cy="68.5" r="6" fill="url(#yanmo-gold)" stroke="#59371b" stroke-width="1"/>
      <circle cx="24.7" cy="68.5" r="1.8" fill="#ff8a3d"/>
      <circle cx="175.3" cy="68.5" r="6" fill="url(#yanmo-gold)" stroke="#59371b" stroke-width="1"/>
      <circle cx="175.3" cy="68.5" r="1.8" fill="#ff8a3d"/>
      <circle cx="100" cy="199" r="6" fill="url(#yanmo-gold)" stroke="#59371b" stroke-width="1"/>
      <circle cx="100" cy="199" r="1.8" fill="#ff8a3d"/>
    </g>
    <path d="M100 16c5 7 5.5 12 0 19-5.5-7-5-12 0-19z" fill="url(#yanmo-gold)"/>
    <g stroke="url(#yanmo-gold)" stroke-width="1" opacity=".7">
      <path d="M84 26h-7M123 26h7M88 14l-5-4M112 14l5-4M88 38l-5 4M112 38l5 4"/>
    </g>
    <g fill="#ffd98a" opacity=".8">
      <circle cx="38" cy="88" r="2.4"/><circle cx="162" cy="94" r="2"/>
      <circle cx="52" cy="170" r="1.8"/><circle cx="150" cy="176" r="2.2"/>
    </g>
    <g fill="#ffe6a8" opacity=".7">
      <circle cx="66" cy="48" r="1.2"/><circle cx="134" cy="48" r="1.2"/>
      <circle cx="100" cy="208" r="1.4"/>
    </g>
  </g>
  <rect width="200" height="260" fill="none" stroke="#8030a0" stroke-opacity=".35" stroke-width="1.5" rx="10"/>
</svg>
